<svg width="89" height="52" viewBox="0 0 89 52" fill="none" xmlns="http://www.w3.org/2000/svg">
<path d="M0 2C0 0.895432 0.89543 0 2 0H86.5361C87.6407 0 88.5361 0.895431 88.5361 2V49.2236C88.5361 50.3282 87.6407 51.2236 86.5361 51.2236H2C0.895429 51.2236 0 50.3282 0 49.2236V2Z" fill="#DA6C49"/>
<path d="M10.2134 29.7503V7.35034H18.0534L21.9254 26.8703H22.5014L26.3734 7.35034H34.2134V29.7503H30.1174V10.4543H29.5414L25.7014 29.7503H18.7254L14.8854 10.4543H14.3094V29.7503H10.2134Z" fill="#FAFAF8"/>
<path d="M45.3442 30.1983C42.5708 30.1983 40.3735 29.4303 38.7522 27.8943C37.1308 26.337 36.3202 24.1183 36.3202 21.2383V15.8623C36.3202 12.9823 37.1308 10.7743 38.7522 9.23834C40.3735 7.68101 42.5708 6.90234 45.3442 6.90234C48.0962 6.90234 50.2188 7.65968 51.7122 9.17435C53.2268 10.6677 53.9842 12.7263 53.9842 15.3503V15.5423H49.8242V15.2223C49.8242 13.8997 49.4508 12.8117 48.7042 11.9583C47.9788 11.105 46.8588 10.6783 45.3442 10.6783C43.8508 10.6783 42.6775 11.137 41.8242 12.0543C40.9708 12.9717 40.5442 14.2197 40.5442 15.7983V21.3023C40.5442 22.8597 40.9708 24.1077 41.8242 25.0463C42.6775 25.9637 43.8508 26.4223 45.3442 26.4223C46.8588 26.4223 47.9788 25.9957 48.7042 25.1423C49.4508 24.2677 49.8242 23.1797 49.8242 21.8783V21.3023H53.9842V21.7503C53.9842 24.3743 53.2268 26.4437 51.7122 27.9583C50.2188 29.4517 48.0962 30.1983 45.3442 30.1983Z" fill="#FAFAF8"/>
<path d="M55.8259 29.7503V7.35034H65.0419C66.4499 7.35034 67.6872 7.63834 68.7539 8.21434C69.8419 8.76901 70.6846 9.55834 71.2819 10.5823C71.9006 11.6063 72.2099 12.8223 72.2099 14.2303V14.6783C72.2099 16.065 71.8899 17.281 71.2499 18.3263C70.6312 19.3503 69.7779 20.1503 68.6899 20.7263C67.6232 21.281 66.4072 21.5583 65.0419 21.5583H60.0499V29.7503H55.8259ZM60.0499 17.7183H64.6259C65.6286 17.7183 66.4392 17.441 67.0579 16.8863C67.6766 16.3317 67.9859 15.5743 67.9859 14.6143V14.2943C67.9859 13.3343 67.6766 12.577 67.0579 12.0223C66.4392 11.4677 65.6286 11.1903 64.6259 11.1903H60.0499V17.7183Z" fill="#FAFAF8"/>
<path fill-rule="evenodd" clip-rule="evenodd" d="M73.8904 11.3183C74.4024 11.7877 75.0211 12.0223 75.7464 12.0223C76.4931 12.0223 77.1117 11.7877 77.6024 11.3183C78.0931 10.849 78.3384 10.2303 78.3384 9.46235C78.3384 8.69434 78.0931 8.07568 77.6024 7.60634C77.1117 7.13701 76.4931 6.90234 75.7464 6.90234C75.0211 6.90234 74.4024 7.13701 73.8904 7.60634C73.3997 8.07568 73.1544 8.69434 73.1544 9.46235C73.1544 10.2303 73.3997 10.849 73.8904 11.3183Z" fill="#FAFAF8"/>
<path d="M10.1982 41.9046V41.7646C10.1982 41.2512 10.3016 40.8112 10.5082 40.4446C10.7149 40.0779 10.9949 39.7946 11.3482 39.5946C11.7016 39.3946 12.0882 39.2946 12.5082 39.2946C13.0216 39.2946 13.4149 39.3946 13.6882 39.5946C13.9682 39.7879 14.1749 40.0046 14.3082 40.2446H14.4482V39.4346H15.1982V45.4646C15.1982 45.7312 15.1249 45.9412 14.9782 46.0946C14.8316 46.2479 14.6182 46.3246 14.3382 46.3246H11.0182V45.6246H14.1282C14.3282 45.6246 14.4282 45.5246 14.4282 45.3246V43.4646H14.2882C14.2082 43.6112 14.0949 43.7546 13.9482 43.8946C13.8016 44.0346 13.6116 44.1512 13.3782 44.2446C13.1449 44.3312 12.8549 44.3746 12.5082 44.3746C12.0882 44.3746 11.7016 44.2746 11.3482 44.0746C10.9949 43.8746 10.7149 43.5912 10.5082 43.2246C10.3016 42.8512 10.1982 42.4112 10.1982 41.9046ZM12.7182 43.6746C13.2249 43.6746 13.6349 43.5146 13.9482 43.1946C14.2682 42.8746 14.4282 42.4346 14.4282 41.8746V41.7946C14.4282 41.2279 14.2682 40.7879 13.9482 40.4746C13.6349 40.1546 13.2249 39.9946 12.7182 39.9946C12.2182 39.9946 11.8049 40.1546 11.4782 40.4746C11.1582 40.7879 10.9982 41.2279 10.9982 41.7946V41.8746C10.9982 42.4346 11.1582 42.8746 11.4782 43.1946C11.8049 43.5146 12.2182 43.6746 12.7182 43.6746Z" fill="#FAFAF8"/>
<path d="M19.1143 44.4646C18.6209 44.4646 18.1843 44.3612 17.8043 44.1546C17.4309 43.9479 17.1376 43.6579 16.9243 43.2846C16.7176 42.9046 16.6143 42.4579 16.6143 41.9446V41.8146C16.6143 41.3079 16.7176 40.8646 16.9243 40.4846C17.1376 40.1046 17.4309 39.8112 17.8043 39.6046C18.1843 39.3979 18.6209 39.2946 19.1143 39.2946C19.6076 39.2946 20.0409 39.3979 20.4143 39.6046C20.7943 39.8112 21.0876 40.1046 21.2943 40.4846C21.5076 40.8646 21.6143 41.3079 21.6143 41.8146V41.9446C21.6143 42.4579 21.5076 42.9046 21.2943 43.2846C21.0876 43.6579 20.7943 43.9479 20.4143 44.1546C20.0409 44.3612 19.6076 44.4646 19.1143 44.4646ZM19.1143 43.7546C19.6343 43.7546 20.0476 43.5912 20.3543 43.2646C20.6676 42.9312 20.8243 42.4846 20.8243 41.9246V41.8346C20.8243 41.2746 20.6676 40.8312 20.3543 40.5046C20.0476 40.1712 19.6343 40.0046 19.1143 40.0046C18.6009 40.0046 18.1876 40.1712 17.8743 40.5046C17.5609 40.8312 17.4043 41.2746 17.4043 41.8346V41.9246C17.4043 42.4846 17.5609 42.9312 17.8743 43.2646C18.1876 43.5912 18.6009 43.7546 19.1143 43.7546Z" fill="#FAFAF8"/>
<path d="M25.2959 44.4646C24.8026 44.4646 24.3659 44.3612 23.9859 44.1546C23.6126 43.9479 23.3192 43.6579 23.1059 43.2846C22.8992 42.9046 22.7959 42.4579 22.7959 41.9446V41.8146C22.7959 41.3079 22.8992 40.8646 23.1059 40.4846C23.3192 40.1046 23.6126 39.8112 23.9859 39.6046C24.3659 39.3979 24.8026 39.2946 25.2959 39.2946C25.7892 39.2946 26.2226 39.3979 26.5959 39.6046C26.9759 39.8112 27.2692 40.1046 27.4759 40.4846C27.6892 40.8646 27.7959 41.3079 27.7959 41.8146V41.9446C27.7959 42.4579 27.6892 42.9046 27.4759 43.2846C27.2692 43.6579 26.9759 43.9479 26.5959 44.1546C26.2226 44.3612 25.7892 44.4646 25.2959 44.4646ZM25.2959 43.7546C25.8159 43.7546 26.2292 43.5912 26.5359 43.2646C26.8492 42.9312 27.0059 42.4846 27.0059 41.9246V41.8346C27.0059 41.2746 26.8492 40.8312 26.5359 40.5046C26.2292 40.1712 25.8159 40.0046 25.2959 40.0046C24.7826 40.0046 24.3692 40.1712 24.0559 40.5046C23.7426 40.8312 23.5859 41.2746 23.5859 41.8346V41.9246C23.5859 42.4846 23.7426 42.9312 24.0559 43.2646C24.3692 43.5912 24.7826 43.7546 25.2959 43.7546Z" fill="#FAFAF8"/>
<path d="M28.9775 41.9046V41.7646C28.9775 41.2512 29.0809 40.8112 29.2875 40.4446C29.4942 40.0779 29.7742 39.7946 30.1275 39.5946C30.4809 39.3946 30.8675 39.2946 31.2875 39.2946C31.8009 39.2946 32.1942 39.3946 32.4675 39.5946C32.7475 39.7879 32.9542 40.0046 33.0875 40.2446H33.2275V39.4346H33.9775V45.4646C33.9775 45.7312 33.9042 45.9412 33.7575 46.0946C33.6109 46.2479 33.3975 46.3246 33.1175 46.3246H29.7975V45.6246H32.9075C33.1075 45.6246 33.2075 45.5246 33.2075 45.3246V43.4646H33.0675C32.9875 43.6112 32.8742 43.7546 32.7275 43.8946C32.5809 44.0346 32.3909 44.1512 32.1575 44.2446C31.9242 44.3312 31.6342 44.3746 31.2875 44.3746C30.8675 44.3746 30.4809 44.2746 30.1275 44.0746C29.7742 43.8746 29.4942 43.5912 29.2875 43.2246C29.0809 42.8512 28.9775 42.4112 28.9775 41.9046ZM31.4975 43.6746C32.0042 43.6746 32.4142 43.5146 32.7275 43.1946C33.0475 42.8746 33.2075 42.4346 33.2075 41.8746V41.7946C33.2075 41.2279 33.0475 40.7879 32.7275 40.4746C32.4142 40.1546 32.0042 39.9946 31.4975 39.9946C30.9975 39.9946 30.5842 40.1546 30.2575 40.4746C29.9375 40.7879 29.7775 41.2279 29.7775 41.7946V41.8746C29.7775 42.4346 29.9375 42.8746 30.2575 43.1946C30.5842 43.5146 30.9975 43.6746 31.4975 43.6746Z" fill="#FAFAF8"/>
<path d="M35.6336 44.3246V37.3246H36.4236V44.3246H35.6336Z" fill="#FAFAF8"/>
<path d="M40.3247 44.4646C39.8314 44.4646 39.3981 44.3612 39.0247 44.1546C38.6514 43.9412 38.3614 43.6446 38.1547 43.2646C37.9481 42.8846 37.8447 42.4446 37.8447 41.9446V41.8246C37.8447 41.3179 37.9481 40.8746 38.1547 40.4946C38.3614 40.1146 38.6481 39.8212 39.0147 39.6146C39.3814 39.4012 39.8014 39.2946 40.2747 39.2946C40.7347 39.2946 41.1414 39.3946 41.4947 39.5946C41.8481 39.7879 42.1247 40.0679 42.3247 40.4346C42.5247 40.8012 42.6247 41.2312 42.6247 41.7246V42.0846H38.6347C38.6547 42.6112 38.8247 43.0246 39.1447 43.3246C39.4647 43.6179 39.8647 43.7646 40.3447 43.7646C40.7647 43.7646 41.0881 43.6679 41.3147 43.4746C41.5414 43.2812 41.7147 43.0512 41.8347 42.7846L42.5147 43.1146C42.4147 43.3212 42.2747 43.5279 42.0947 43.7346C41.9214 43.9412 41.6914 44.1146 41.4047 44.2546C41.1247 44.3946 40.7647 44.4646 40.3247 44.4646ZM38.6447 41.4346H41.8247C41.7981 40.9812 41.6414 40.6279 41.3547 40.3746C41.0747 40.1212 40.7147 39.9946 40.2747 39.9946C39.8281 39.9946 39.4614 40.1212 39.1747 40.3746C38.8881 40.6279 38.7114 40.9812 38.6447 41.4346Z" fill="#FAFAF8"/>
<path d="M43.9627 42.1146V41.3846H46.9227V42.1146H43.9627Z" fill="#FAFAF8"/>
<path d="M50.0535 44.4646C49.7135 44.4646 49.4035 44.4046 49.1235 44.2846C48.8435 44.1646 48.6235 43.9912 48.4635 43.7646C48.3035 43.5379 48.2235 43.2612 48.2235 42.9346C48.2235 42.6012 48.3035 42.3279 48.4635 42.1146C48.6235 41.8946 48.8435 41.7312 49.1235 41.6246C49.4035 41.5112 49.7168 41.4546 50.0635 41.4546H51.7135V41.0946C51.7135 40.7479 51.6101 40.4746 51.4035 40.2746C51.2035 40.0746 50.9035 39.9746 50.5035 39.9746C50.1101 39.9746 49.8035 40.0712 49.5835 40.2646C49.3635 40.4512 49.2135 40.7046 49.1335 41.0246L48.3935 40.7846C48.4735 40.5112 48.6001 40.2646 48.7735 40.0446C48.9468 39.8179 49.1768 39.6379 49.4635 39.5046C49.7568 39.3646 50.1068 39.2946 50.5135 39.2946C51.1401 39.2946 51.6268 39.4579 51.9735 39.7846C52.3201 40.1046 52.4935 40.5579 52.4935 41.1446V43.3546C52.4935 43.5546 52.5868 43.6546 52.7735 43.6546H53.2235V44.3246H52.5335C52.3135 44.3246 52.1368 44.2646 52.0035 44.1446C51.8701 44.0179 51.8035 43.8512 51.8035 43.6446V43.5946H51.6835C51.6101 43.7212 51.5101 43.8546 51.3835 43.9946C51.2635 44.1279 51.0968 44.2379 50.8835 44.3246C50.6701 44.4179 50.3935 44.4646 50.0535 44.4646ZM50.1435 43.7846C50.6101 43.7846 50.9868 43.6479 51.2735 43.3746C51.5668 43.0946 51.7135 42.7046 51.7135 42.2046V42.0946H50.0935C49.7801 42.0946 49.5201 42.1646 49.3135 42.3046C49.1135 42.4379 49.0135 42.6412 49.0135 42.9146C49.0135 43.1879 49.1168 43.4012 49.3235 43.5546C49.5368 43.7079 49.8101 43.7846 50.1435 43.7846Z" fill="#FAFAF8"/>
<path d="M56.2387 44.4646C55.8187 44.4646 55.432 44.3646 55.0787 44.1646C54.7254 43.9646 54.4454 43.6746 54.2387 43.2946C54.032 42.9146 53.9287 42.4646 53.9287 41.9446V41.8146C53.9287 41.2946 54.032 40.8479 54.2387 40.4746C54.4454 40.0946 54.722 39.8046 55.0687 39.6046C55.422 39.3979 55.812 39.2946 56.2387 39.2946C56.5787 39.2946 56.8654 39.3412 57.0987 39.4346C57.3387 39.5212 57.532 39.6346 57.6787 39.7746C57.8254 39.9079 57.9387 40.0512 58.0187 40.2046H58.1587V37.3246H58.9487V44.3246H58.1787V43.5146H58.0387C57.9054 43.7612 57.6987 43.9812 57.4187 44.1746C57.1387 44.3679 56.7454 44.4646 56.2387 44.4646ZM56.4487 43.7646C56.9554 43.7646 57.3654 43.6046 57.6787 43.2846C57.9987 42.9579 58.1587 42.5046 58.1587 41.9246V41.8346C58.1587 41.2546 57.9987 40.8046 57.6787 40.4846C57.3654 40.1579 56.9554 39.9946 56.4487 39.9946C55.9487 39.9946 55.5354 40.1579 55.2087 40.4846C54.8887 40.8046 54.7287 41.2546 54.7287 41.8346V41.9246C54.7287 42.5046 54.8887 42.9579 55.2087 43.2846C55.5354 43.6046 55.9487 43.7646 56.4487 43.7646Z" fill="#FAFAF8"/>
<path d="M62.5743 44.4646C61.9676 44.4646 61.4543 44.3246 61.0343 44.0446C60.6209 43.7646 60.3709 43.3212 60.2843 42.7146L61.0343 42.5446C61.0876 42.8646 61.1876 43.1179 61.3343 43.3046C61.4809 43.4846 61.6609 43.6146 61.8743 43.6946C62.0943 43.7679 62.3276 43.8046 62.5743 43.8046C62.9409 43.8046 63.2309 43.7312 63.4443 43.5846C63.6576 43.4379 63.7643 43.2412 63.7643 42.9946C63.7643 42.7412 63.6609 42.5646 63.4543 42.4646C63.2543 42.3579 62.9776 42.2712 62.6243 42.2046L62.2143 42.1346C61.9009 42.0812 61.6143 41.9979 61.3543 41.8846C61.0943 41.7712 60.8876 41.6179 60.7343 41.4246C60.5809 41.2312 60.5043 40.9879 60.5043 40.6946C60.5043 40.2546 60.6743 39.9112 61.0143 39.6646C61.3543 39.4179 61.8043 39.2946 62.3643 39.2946C62.9176 39.2946 63.3643 39.4212 63.7043 39.6746C64.0509 39.9212 64.2743 40.2712 64.3743 40.7246L63.6343 40.9146C63.5743 40.5612 63.4309 40.3146 63.2043 40.1746C62.9776 40.0279 62.6976 39.9546 62.3643 39.9546C62.0309 39.9546 61.7676 40.0179 61.5743 40.1446C61.3809 40.2646 61.2843 40.4446 61.2843 40.6846C61.2843 40.9179 61.3743 41.0912 61.5543 41.2046C61.7409 41.3112 61.9876 41.3912 62.2943 41.4446L62.7043 41.5146C63.0509 41.5746 63.3609 41.6579 63.6343 41.7646C63.9143 41.8646 64.1343 42.0112 64.2943 42.2046C64.4609 42.3979 64.5443 42.6512 64.5443 42.9646C64.5443 43.4446 64.3643 43.8146 64.0043 44.0746C63.6509 44.3346 63.1743 44.4646 62.5743 44.4646Z" fill="#FAFAF8"/>
<path d="M72.4149 32.6917L72.8344 32.6943C73.4317 32.6943 73.7304 32.3743 73.7304 31.7343V13.8783H77.7624V32.5663C77.7624 33.6543 77.4424 34.5183 76.8024 35.1583C76.1624 35.8197 75.3091 36.1503 74.2424 36.1503L72.4149 36.1527H10.2166V32.6917H72.4149Z" fill="#FAFAF8"/>
</svg>
